<?xml version="1.0" encoding="utf-8"?>
<!-- Generator: Adobe Illustrator 21.0.0, SVG Export Plug-In . SVG Version: 6.00 Build 0)  -->
<svg version="1.1" xmlns="http://www.w3.org/2000/svg" xmlns:xlink="http://www.w3.org/1999/xlink" x="0px" y="0px"
	 viewBox="0 0 1233 504" style="enable-background:new 0 0 1233 504;" xml:space="preserve">
<style type="text/css">
	.st0{fill:#0000FF;}
	.st1{fill:#FF0000;}
	.st2{fill:#FFFFFF;}
</style>
<g id="Layer_2">
	<rect class="st0" width="575" height="272"/>
</g>
<g id="Layer_3">
	<rect x="575" class="st1" width="658" height="39"/>
	<rect x="575" y="39" class="st2" width="658" height="39"/>
	<rect x="575" y="78" class="st1" width="658" height="39"/>
	<rect x="575" y="117" class="st2" width="658" height="39"/>
	<rect x="575" y="156" class="st1" width="658" height="39"/>
	<rect x="575" y="195" class="st2" width="658" height="39"/>
	<rect x="575" y="233" class="st1" width="658" height="39"/>
	<rect y="272" class="st2" width="1233" height="39"/>
	<rect y="311" class="st1" width="1233" height="39"/>
	<rect y="349" class="st2" width="1233" height="39"/>
	<rect y="388" class="st1" width="1233" height="39"/>
	<rect y="426" class="st2" width="1233" height="39"/>
	<rect y="465" class="st1" width="1233" height="39"/>
</g>
<g id="Layer_1">
	<g>
		<polygon class="st2" points="42.5,34.4 41.6,32.7 39.7,32.4 41.1,31 40.8,29.2 42.5,30.1 44.2,29.2 43.9,31.1 45.2,32.4 
			43.3,32.7 		"/>
	</g>
	<g>
		<polygon class="st2" points="45.5,14.9 52.7,29.5 68.9,31.9 57.2,43.3 60,59.4 45.5,51.8 31,59.4 33.8,43.3 22.1,31.9 38.3,29.5 
					"/>
	</g>
	<g>
		<polygon class="st2" points="45.5,59.9 52.7,74.5 68.9,76.9 57.2,88.3 60,104.4 45.5,96.8 31,104.4 33.8,88.3 22.1,76.9 
			38.3,74.5 		"/>
	</g>
	<g>
		<polygon class="st2" points="45.5,104.9 52.7,119.5 68.9,121.9 57.2,133.3 60,149.4 45.5,141.8 31,149.4 33.8,133.3 22.1,121.9 
			38.3,119.5 		"/>
	</g>
	<g>
		<polygon class="st2" points="45.5,149.9 52.7,164.5 68.9,166.9 57.2,178.3 60,194.4 45.5,186.8 31,194.4 33.8,178.3 22.1,166.9 
			38.3,164.5 		"/>
	</g>
	<g>
		<polygon class="st2" points="45.5,194.9 52.7,209.5 68.9,211.9 57.2,223.3 60,239.4 45.5,231.8 31,239.4 33.8,223.3 22.1,211.9 
			38.3,209.5 		"/>
	</g>
	<g>
		<polygon class="st2" points="96.5,48.4 95.6,46.7 93.7,46.4 95.1,45 94.8,43.2 96.5,44.1 98.2,43.2 97.9,45.1 99.2,46.4 
			97.3,46.7 		"/>
	</g>
	<g>
		<polygon class="st2" points="99.5,28.9 106.7,43.5 122.9,45.9 111.2,57.3 114,73.4 99.5,65.8 85,73.4 87.8,57.3 76.1,45.9 
			92.3,43.5 		"/>
	</g>
	<g>
		<polygon class="st2" points="99.5,73.9 106.7,88.5 122.9,90.9 111.2,102.3 114,118.4 99.5,110.8 85,118.4 87.8,102.3 76.1,90.9 
			92.3,88.5 		"/>
	</g>
	<g>
		<polygon class="st2" points="99.5,118.9 106.7,133.5 122.9,135.9 111.2,147.3 114,163.4 99.5,155.8 85,163.4 87.8,147.3 
			76.1,135.9 92.3,133.5 		"/>
	</g>
	<g>
		<polygon class="st2" points="99.5,163.9 106.7,178.5 122.9,180.9 111.2,192.3 114,208.4 99.5,200.8 85,208.4 87.8,192.3 
			76.1,180.9 92.3,178.5 		"/>
	</g>
	<g>
		<polygon class="st2" points="99.5,208.9 106.7,223.5 122.9,225.9 111.2,237.3 114,253.4 99.5,245.8 85,253.4 87.8,237.3 
			76.1,225.9 92.3,223.5 		"/>
	</g>
	<g>
		<polygon class="st2" points="150.5,34.4 149.6,32.7 147.7,32.4 149.1,31 148.8,29.2 150.5,30.1 152.2,29.2 151.9,31.1 153.2,32.4 
			151.3,32.7 		"/>
	</g>
	<g>
		<polygon class="st2" points="153.5,14.9 160.7,29.5 176.9,31.9 165.2,43.3 168,59.4 153.5,51.8 139,59.4 141.8,43.3 130.1,31.9 
			146.3,29.5 		"/>
	</g>
	<g>
		<polygon class="st2" points="153.5,59.9 160.7,74.5 176.9,76.9 165.2,88.3 168,104.4 153.5,96.8 139,104.4 141.8,88.3 130.1,76.9 
			146.3,74.5 		"/>
	</g>
	<g>
		<polygon class="st2" points="153.5,104.9 160.7,119.5 176.9,121.9 165.2,133.3 168,149.4 153.5,141.8 139,149.4 141.8,133.3 
			130.1,121.9 146.3,119.5 		"/>
	</g>
	<g>
		<polygon class="st2" points="153.5,149.9 160.7,164.5 176.9,166.9 165.2,178.3 168,194.4 153.5,186.8 139,194.4 141.8,178.3 
			130.1,166.9 146.3,164.5 		"/>
	</g>
	<g>
		<polygon class="st2" points="153.5,194.9 160.7,209.5 176.9,211.9 165.2,223.3 168,239.4 153.5,231.8 139,239.4 141.8,223.3 
			130.1,211.9 146.3,209.5 		"/>
	</g>
	<g>
		<polygon class="st2" points="207.5,28.9 214.7,43.5 230.9,45.9 219.2,57.3 222,73.4 207.5,65.8 193,73.4 195.8,57.3 184.1,45.9 
			200.3,43.5 		"/>
	</g>
	<g>
		<polygon class="st2" points="207.5,73.9 214.7,88.5 230.9,90.9 219.2,102.3 222,118.4 207.5,110.8 193,118.4 195.8,102.3 
			184.1,90.9 200.3,88.5 		"/>
	</g>
	<g>
		<polygon class="st2" points="207.5,118.9 214.7,133.5 230.9,135.9 219.2,147.3 222,163.4 207.5,155.8 193,163.4 195.8,147.3 
			184.1,135.9 200.3,133.5 		"/>
	</g>
	<g>
		<polygon class="st2" points="207.5,163.9 214.7,178.5 230.9,180.9 219.2,192.3 222,208.4 207.5,200.8 193,208.4 195.8,192.3 
			184.1,180.9 200.3,178.5 		"/>
	</g>
	<g>
		<polygon class="st2" points="207.5,208.9 214.7,223.5 230.9,225.9 219.2,237.3 222,253.4 207.5,245.8 193,253.4 195.8,237.3 
			184.1,225.9 200.3,223.5 		"/>
	</g>
	<g>
		<polygon class="st2" points="260.5,14.9 267.7,29.5 283.9,31.9 272.2,43.3 275,59.4 260.5,51.8 246,59.4 248.8,43.3 237.1,31.9 
			253.3,29.5 		"/>
	</g>
	<g>
		<polygon class="st2" points="260.5,59.9 267.7,74.5 283.9,76.9 272.2,88.3 275,104.4 260.5,96.8 246,104.4 248.8,88.3 237.1,76.9 
			253.3,74.5 		"/>
	</g>
	<g>
		<polygon class="st2" points="260.5,104.9 267.7,119.5 283.9,121.9 272.2,133.3 275,149.4 260.5,141.8 246,149.4 248.8,133.3 
			237.1,121.9 253.3,119.5 		"/>
	</g>
	<g>
		<polygon class="st2" points="260.5,149.9 267.7,164.5 283.9,166.9 272.2,178.3 275,194.4 260.5,186.8 246,194.4 248.8,178.3 
			237.1,166.9 253.3,164.5 		"/>
	</g>
	<g>
		<polygon class="st2" points="260.5,194.9 267.7,209.5 283.9,211.9 272.2,223.3 275,239.4 260.5,231.8 246,239.4 248.8,223.3 
			237.1,211.9 253.3,209.5 		"/>
	</g>
	<g>
		<polygon class="st2" points="313.5,28.9 320.7,43.5 336.9,45.9 325.2,57.3 328,73.4 313.5,65.8 299,73.4 301.8,57.3 290.1,45.9 
			306.3,43.5 		"/>
	</g>
	<g>
		<polygon class="st2" points="313.5,73.9 320.7,88.5 336.9,90.9 325.2,102.3 328,118.4 313.5,110.8 299,118.4 301.8,102.3 
			290.1,90.9 306.3,88.5 		"/>
	</g>
	<g>
		<polygon class="st2" points="313.5,118.9 320.7,133.5 336.9,135.9 325.2,147.3 328,163.4 313.5,155.8 299,163.4 301.8,147.3 
			290.1,135.9 306.3,133.5 		"/>
	</g>
	<g>
		<polygon class="st2" points="313.5,163.9 320.7,178.5 336.9,180.9 325.2,192.3 328,208.4 313.5,200.8 299,208.4 301.8,192.3 
			290.1,180.9 306.3,178.5 		"/>
	</g>
	<g>
		<polygon class="st2" points="313.5,208.9 320.7,223.5 336.9,225.9 325.2,237.3 328,253.4 313.5,245.8 299,253.4 301.8,237.3 
			290.1,225.9 306.3,223.5 		"/>
	</g>
	<g>
		<polygon class="st2" points="358.5,41.4 357.6,39.7 355.7,39.4 357.1,38 356.8,36.2 358.5,37.1 360.2,36.2 359.9,38.1 361.2,39.4 
			359.3,39.7 		"/>
	</g>
	<g>
		<polygon class="st2" points="367.5,14.9 374.7,29.5 390.9,31.9 379.2,43.3 382,59.4 367.5,51.8 353,59.4 355.8,43.3 344.1,31.9 
			360.3,29.5 		"/>
	</g>
	<g>
		<polygon class="st2" points="367.5,60.9 374.7,75.5 390.9,77.9 379.2,89.3 382,105.4 367.5,97.8 353,105.4 355.8,89.3 344.1,77.9 
			360.3,75.5 		"/>
	</g>
	<g>
		<polygon class="st2" points="367.5,105.9 374.7,120.5 390.9,122.9 379.2,134.3 382,150.4 367.5,142.8 353,150.4 355.8,134.3 
			344.1,122.9 360.3,120.5 		"/>
	</g>
	<g>
		<polygon class="st2" points="367.5,149.9 374.7,164.5 390.9,166.9 379.2,178.3 382,194.4 367.5,186.8 353,194.4 355.8,178.3 
			344.1,166.9 360.3,164.5 		"/>
	</g>
	<g>
		<polygon class="st2" points="367.5,194.9 374.7,209.5 390.9,211.9 379.2,223.3 382,239.4 367.5,231.8 353,239.4 355.8,223.3 
			344.1,211.9 360.3,209.5 		"/>
	</g>
	<g>
		<polygon class="st2" points="422.5,29.9 429.7,44.5 445.9,46.9 434.2,58.3 437,74.4 422.5,66.8 408,74.4 410.8,58.3 399.1,46.9 
			415.3,44.5 		"/>
	</g>
	<g>
		<polygon class="st2" points="422.5,74.9 429.7,89.5 445.9,91.9 434.2,103.3 437,119.4 422.5,111.8 408,119.4 410.8,103.3 
			399.1,91.9 415.3,89.5 		"/>
	</g>
	<g>
		<polygon class="st2" points="422.5,119.9 429.7,134.5 445.9,136.9 434.2,148.3 437,164.4 422.5,156.8 408,164.4 410.8,148.3 
			399.1,136.9 415.3,134.5 		"/>
	</g>
	<g>
		<polygon class="st2" points="422.5,164.9 429.7,179.5 445.9,181.9 434.2,193.3 437,209.4 422.5,201.8 408,209.4 410.8,193.3 
			399.1,181.9 415.3,179.5 		"/>
	</g>
	<g>
		<polygon class="st2" points="422.5,208.9 429.7,223.5 445.9,225.9 434.2,237.3 437,253.4 422.5,245.8 408,253.4 410.8,237.3 
			399.1,225.9 415.3,223.5 		"/>
	</g>
	<g>
		<polygon class="st2" points="466.5,41.4 465.6,39.7 463.7,39.4 465.1,38 464.8,36.2 466.5,37.1 468.2,36.2 467.9,38.1 469.2,39.4 
			467.3,39.7 		"/>
	</g>
	<g>
		<polygon class="st2" points="477.5,14.9 484.7,29.5 500.9,31.9 489.2,43.3 492,59.4 477.5,51.8 463,59.4 465.8,43.3 454.1,31.9 
			470.3,29.5 		"/>
	</g>
	<g>
		<polygon class="st2" points="477.5,60.9 484.7,75.5 500.9,77.9 489.2,89.3 492,105.4 477.5,97.8 463,105.4 465.8,89.3 454.1,77.9 
			470.3,75.5 		"/>
	</g>
	<g>
		<polygon class="st2" points="477.5,105.9 484.7,120.5 500.9,122.9 489.2,134.3 492,150.4 477.5,142.8 463,150.4 465.8,134.3 
			454.1,122.9 470.3,120.5 		"/>
	</g>
	<g>
		<polygon class="st2" points="477.5,150.9 484.7,165.5 500.9,167.9 489.2,179.3 492,195.4 477.5,187.8 463,195.4 465.8,179.3 
			454.1,167.9 470.3,165.5 		"/>
	</g>
	<g>
		<polygon class="st2" points="477.5,195.9 484.7,210.5 500.9,212.9 489.2,224.3 492,240.4 477.5,232.8 463,240.4 465.8,224.3 
			454.1,212.9 470.3,210.5 		"/>
	</g>
	<g>
		<polygon class="st2" points="522.5,55.4 521.6,53.7 519.7,53.4 521.1,52 520.8,50.2 522.5,51.1 524.2,50.2 523.9,52.1 525.2,53.4 
			523.3,53.7 		"/>
	</g>
	<g>
		<polygon class="st2" points="531.5,29.9 538.7,44.5 554.9,46.9 543.2,58.3 546,74.4 531.5,66.8 517,74.4 519.8,58.3 508.1,46.9 
			524.3,44.5 		"/>
	</g>
	<g>
		<polygon class="st2" points="531.5,74.9 538.7,89.5 554.9,91.9 543.2,103.3 546,119.4 531.5,111.8 517,119.4 519.8,103.3 
			508.1,91.9 524.3,89.5 		"/>
	</g>
	<g>
		<polygon class="st2" points="531.5,119.9 538.7,134.5 554.9,136.9 543.2,148.3 546,164.4 531.5,156.8 517,164.4 519.8,148.3 
			508.1,136.9 524.3,134.5 		"/>
	</g>
	<g>
		<polygon class="st2" points="531.5,164.9 538.7,179.5 554.9,181.9 543.2,193.3 546,209.4 531.5,201.8 517,209.4 519.8,193.3 
			508.1,181.9 524.3,179.5 		"/>
	</g>
	<g>
		<polygon class="st2" points="531.5,208.9 538.7,223.5 554.9,225.9 543.2,237.3 546,253.4 531.5,245.8 517,253.4 519.8,237.3 
			508.1,225.9 524.3,223.5 		"/>
	</g>
</g>
</svg>
